# xmcd CD database file
#
# Track frame offsets:
#	150
#	18365
#	40075
#	58295
#	75430
#	94625
#	110732
#	112365
#	136902
#	142227
#	157142
#	178430
#
# Disc length: 2664 seconds
#
# Revision: 3
# Processed by: cddbd v1.5.2PL0 Copyright (c) Steve Scherf et al.
# Submitted via: CDex 1.70beta2
#
DISCID=b20a660c
DTITLE=BENNIE K - Cube
DYEAR=2002
DGENRE=JPop
TTITLE0=SCHOOL GIRL　東京Ver.
TTITLE1=Sunshine
TTITLE2=NAI
TTITLE3=SILENCE
TTITLE4=Hole In Da Tribe
TTITLE5=最終決戦
TTITLE6=理由①(Interlude)
TTITLE7=Melody ～ night fly ～
TTITLE8=タイトルコール(Interlude)
TTITLE9=Crazy Day
TTITLE10=P-DAD
TTITLE11=Superdome
EXTD=YEAR: 2002
EXTT0=
EXTT1=
EXTT2=
EXTT3=
EXTT4=
EXTT5=
EXTT6=
EXTT7=
EXTT8=
EXTT9=
EXTT10=
EXTT11=
PLAYORDER=
